<svg width="248" height="249" viewBox="0 0 248 249" xmlns="http://www.w3.org/2000/svg"><title>duende</title><defs><linearGradient x1="92.791%" y1="24.734%" x2="11.261%" y2="87.338%" id="a"><stop stop-color="#F6D365" offset="0%"/><stop stop-color="#FDA085" offset="100%"/></linearGradient></defs><path d="M189.696 32.277c.335 20.974.04 42.414.07 62.288-.068.002-.053.084-.07.14-2.188.574-4.373.682-6.443 1.107-14.548 2.99-25.357 9.81-33.88 18.984-4.802 5.166-8.473 11.562-11.503 18.707-3.02 7.125-4.782 15.795-4.434 25.568.416 11.683 4.07 21.258 8.66 29.1 2.765 4.72 6.047 9.026 9.84 12.82 5.034 5.03 11.086 9.032 18.015 12.193 6.94 3.164 15.205 5.334 24.806 5.196.488-1.872.277-3.84.277-5.75-.005-45.26.004-88.525 0-134.486-.002-3.72.115-7.516.138-11.293.047-7.535-.067-15.35-.067-23.418 0-2.965-.132-6.006 0-8.8.038-.852-.097-1.827.345-2.632 8.45.03 17.71.862 24.735 2.563 7.573 1.834 14.498 3.603 20.786 6.236 6.44 2.696 12.4 5.64 18.014 9.006 5.594 3.357 10.82 7.234 15.658 11.364 17.947 15.322 32.482 35.436 39.77 61.526.25.89.464 1.796.694 2.703.232.924.274 1.876.485 2.84 1.604 7.37 3.016 15.278 3.188 23.835.178 8.936-.383 17.208-1.734 25.15-.677 3.978-1.235 7.745-2.216 11.293-2.933 10.59-6.75 20.195-11.64 28.892-6.394 11.37-14.51 21.51-23.835 30.21-4.63 4.32-9.655 8.36-15.035 11.987-5.396 3.635-11.07 7.06-17.183 9.77-12.61 5.588-26.08 9.99-42.82 11.223-17.797 1.307-34.138-1.316-47.6-5.614-13.512-4.312-25.178-10.854-35.68-18.36-5.215-3.727-9.94-8.137-14.414-12.61-9.09-9.092-16.437-19.368-22.446-31.527-5.98-12.09-10.513-25.465-12.402-41.64-.945-8.086-.945-16.685-.416-25.428.494-8.176 2.286-15.802 4.226-22.796.986-3.55 2.123-6.915 3.326-10.184 1.21-3.285 2.713-6.346 4.087-9.423 1.397-3.128 3.167-5.947 4.644-8.87 1.51-2.994 3.382-5.598 5.195-8.314 3.574-5.358 7.79-10.156 12.055-14.897 9.992-10.623 21.85-19.308 35.545-26.19 6.886-3.463 14.227-6.238 22.38-8.523 8.09-2.268 16.994-3.696 26.674-4.02.11-.02.12.066.206.07z" transform="matrix(-1 0 0 1 318.81 -32)" fill-rule="nonzero" fill="url(#a)"/></svg>